<?xml version="1.0" encoding="utf-8"?>
<!-- Generator: Adobe Illustrator 28.0.0, SVG Export Plug-In . SVG Version: 6.00 Build 0)  -->
<svg version="1.1" id="Layer_1" xmlns="http://www.w3.org/2000/svg" xmlns:xlink="http://www.w3.org/1999/xlink" x="0px" y="0px"
	 viewBox="0 0 603.04 224" style="enable-background:new 0 0 603.04 224;" xml:space="preserve">
<style type="text/css">
	.st0{fill:#120D0A;}
</style>
<g>
	<g>
		<g>
			<g>
				<g>
					<g>
						<g>
							<path class="st0" d="M57.66,1.38C25.86,1.38,0,27.25,0,59.04v8.9h10.71c9.05,0,17.31,3.41,23.58,9.01V59.04
								c0-12.89,10.49-23.38,23.38-23.38s23.38,10.49,23.38,23.38v45.2h34.29v-45.2C115.33,27.25,89.46,1.38,57.66,1.38z"/>
							<polygon class="st0" points="81.04,126.06 76.37,126.06 71.69,126.06 61.24,126.06 61.24,138.53 43.64,138.53 41.52,138.53 
								43.64,141.8 55.6,160.35 58.61,165.02 61.63,169.7 63.64,172.81 115.33,172.81 115.33,113.59 81.04,113.59 							"/>
							<path class="st0" d="M47.49,165.02l-3.02-4.68l-0.83-1.29l-4.68-7.25l-4.68-7.25l-3.89-6.03l-3.01-4.67l-3.02-4.68
								l-1.71-2.65l4.05-2.51c0.26-0.17,4.68-3.07,7.58-9.17c1.44-3.02,2.51-6.82,2.51-11.47c0-3.99-0.9-7.77-2.51-11.15
								C30.09,83.4,21.1,77.28,10.7,77.28H0v95.52h20.35h4.68h4.68h22.81l-2.01-3.12L47.49,165.02z"/>
						</g>
					</g>
				</g>
			</g>
			<g>
				<g>
					<g>
						<path class="st0" d="M183.9,75.83h18.91c11.46,0,16.49,6.28,16.49,14.91c0,7.11-3.38,12.01-9.45,14.01l11.11,16.22h-10.49
							l-9.59-15.25h-8.14v15.25h-8.83L183.9,75.83L183.9,75.83z M202.95,97.5c5.59,0,7.45-2.9,7.45-6.76s-1.86-6.69-7.45-6.69
							h-10.21v13.46L202.95,97.5L202.95,97.5z"/>
						<path class="st0" d="M226,94.53c0-12.08,6.9-19.6,19.67-19.6s19.81,7.52,19.81,19.6v26.43h-8.83v-13.53h-22.03v13.53h-8.63
							L226,94.53L226,94.53z M256.64,99.43v-4.9c0-7.25-3.59-11.39-11.04-11.39c-7.39,0-10.97,4.14-10.97,11.39v4.9H256.64z"/>
						<path class="st0" d="M454.9,94.53c0-12.08,6.9-19.6,19.67-19.6c12.77,0,19.81,7.52,19.81,19.6v26.43h-8.83v-13.53h-22.02
							v13.53h-8.63L454.9,94.53L454.9,94.53z M485.55,99.43v-4.9c0-7.25-3.59-11.39-11.04-11.39c-7.39,0-10.97,4.14-10.97,11.39v4.9
							H485.55z"/>
						<path class="st0" d="M564.42,94.53c0-12.08,6.9-19.6,19.67-19.6c12.77,0,19.81,7.52,19.81,19.6v26.43h-8.83v-13.53h-22.02
							v13.53h-8.63L564.42,94.53L564.42,94.53z M595.06,99.43v-4.9c0-7.25-3.59-11.39-11.04-11.39c-7.39,0-10.97,4.14-10.97,11.39
							v4.9H595.06z"/>
						<path class="st0" d="M272.65,104.88V75.83h8.83v29.05c0,6.21,3.31,8.77,7.66,8.77s7.66-2.62,7.66-8.77V75.83h8.83v29.05
							c0,6.14,3.31,8.77,7.66,8.77s7.66-2.55,7.66-8.77V75.83h8.83v29.05c0,11.59-6.83,16.98-15.74,16.98
							c-5.73,0-10.21-2.42-12.84-6.9c-2.62,4.49-7.11,6.9-12.84,6.9C279.48,121.86,272.65,116.47,272.65,104.88z"/>
						<path class="st0" d="M335.99,98.66c0-13.54,9.93-23.47,24.01-23.47c14.08,0,24.01,9.93,24.01,23.47s-9.93,23.47-24.01,23.47
							S335.99,112.2,335.99,98.66z M375.35,98.66c0-9.03-6.14-15.53-15.35-15.53s-15.35,6.5-15.35,15.53s6.14,15.53,15.35,15.53
							S375.35,107.69,375.35,98.66z"/>
						<path class="st0" d="M548.42,76.37H557v44.59h-8.58V76.37z"/>
					</g>
					<path class="st0" d="M447.75,92.8v28.16h-8.83V92.8c0-6.21-3.31-8.77-7.66-8.77s-7.66,2.62-7.66,8.77v28.16h-8.83V92.8
						c0-6.14-3.31-8.77-7.66-8.77s-7.66,2.55-7.66,8.77v28.16h-8.83V92.8c0-11.59,6.83-16.98,15.74-16.98
						c5.73,0,10.21,2.42,12.84,6.9c2.62-4.49,7.11-6.9,12.84-6.9C440.92,75.83,447.75,81.21,447.75,92.8z"/>
				</g>
				<path class="st0" d="M531.99,99.43v-4.9c0-7.25-3.59-11.39-11.04-11.39c-7.38,0-10.97,4.14-10.97,11.39v4.9v8.01v13.53h-8.63
					V94.54c0-12.08,6.9-19.6,19.67-19.6s19.81,7.52,19.81,19.6v26.43H532v-13.53v-8.01H531.99z"/>
			</g>
		</g>
	</g>
</g>
</svg>
